Patient4_TMGait_0pt4_03_left_18_EMG.mot
version=1
nRows=40
nColumns=33
inDegrees=no
endheader
time	1LAddLong	2LGlutMax	3LGlutMed	4LIliopsoas	5LSemiMemb	6LBicFemLong	7LRecFem	8LVastMed	9LVastLat	10LGasMed	11LTibAnt	12lTibPost	13LPeroneusLong	14LSol	15LExtDigLong	16LFlexDigLong	17RAddLong	18RGlutMax	19RGlutMed	20RIliopsoas	21RSemiMemb	22RBicFemLong	23RRecFem	24RVastMed	25RVastLat	26RGasMed	27RTibAnt	28RTibPost	29RPeroneusLong	30RSol	31RExtDigLong	32RFlexDigLong
23.46	0.007477	0.55634	0.016174	-0.015259	-0.005188	0.033875	0.20386	0.016174	-0.20691	-0.020447	0.071259	-0.001221	0.01236	-0.033264	-0.27557	0.01358	-0.018616	-0.32242	1.5236	0.003357	0.035095	-0.045319	-0.06134	0.18021	0.073242	-0.014801	0.022125	-0.012054	-1.3866	0.002441	-0.003052	0.000458
23.461	0.001068	0.56778	0.011749	0.009003	-0.014191	0.02594	0.20462	0.016785	-0.20203	-0.011292	0.092163	-0.010986	0.020294	-0.031281	0.061493	0.015411	-0.020599	-0.27802	1.5051	0.050659	0.054779	0.046234	-0.006866	0.22095	0.17654	-0.020447	0.10819	-0.014496	-1.2126	0.16296	-0.002594	-0.000916
23.462	0.00824	0.52856	-0.020142	0.002441	-0.00351	0.006256	0.23315	0.015564	-0.19333	0.001373	0.093994	-0.001373	-0.039978	-0.014801	-0.056305	0.003967	0.001221	-0.32089	1.3812	0.074463	0.054932	0.19287	0.05661	0.078125	0.17303	-0.027466	0.12085	-0.013733	-0.53955	0.17975	0.012512	0.001526
23.463	-0.003052	0.53894	-0.011597	0.021057	-0.002899	0.014343	0.20004	0.010529	-0.1831	0.003052	0.121	-0.000305	-0.052948	-0.012512	-0.019531	0.011292	0.004883	-0.4245	0.82382	0.047913	-0.00061	0.53635	-0.055847	-0.13092	0.097046	-0.0177	0.04425	-0.007172	-0.28534	0.054779	-0.000763	0.001068
23.464	-0.007629	0.49911	-0.016785	0.011444	0.000763	0.013428	0.20477	0.030823	-0.18539	-0.00351	0.087433	-0.001526	-0.021667	-0.020752	0.051117	0.016479	0.004425	-0.52963	0.16266	0.057678	-0.013428	0.25726	-0.088348	-0.168	0.011139	0.000153	0.18662	-0.003052	-0.56732	0.068359	-0.001068	-0.004272
23.465	-0.013123	0.50186	-0.014496	0.023041	-0.006104	0.017395	0.20844	0.027313	-0.18616	-0.024872	0.03067	0.00061	0.066986	0.009918	0.48202	0.014954	0.005493	-0.57098	-0.1001	0.058289	-0.010681	0.021057	0.002289	-0.20126	-0.023956	0.007629	0.35263	0.002136	-0.96527	0.021362	-0.001068	-0.003662
23.466	-0.018005	0.49789	-0.006104	0.030823	-0.005035	0.008545	0.20859	0.032654	-0.18478	-0.015717	0.063171	-0.000458	0.033264	0.027008	0.020905	-0.010223	0.017853	-0.53711	0.27832	0.014496	-0.021362	-0.10498	0.08255	-0.23712	-0.089569	0.00351	0.19196	0.004883	-0.40054	-0.071716	0.000305	0.001526
23.467	-0.011749	0.50217	0.009003	0.006409	-0.002747	-0.011902	0.21652	0.013123	-0.18875	-0.036011	-0.11276	-0.008087	0.069275	0.041199	-0.091248	-0.001678	-0.010223	-0.53238	0.60974	0.031128	-0.11856	-0.12329	0.087433	-0.12573	-0.11505	0.004578	-0.17273	-0.002594	0.7135	-0.19943	0.001068	-0.001373
23.468	-0.011902	0.41687	0.016632	-0.016479	-0.003052	0.016022	0.20264	0.008698	-0.17731	-0.039215	-0.34607	0.005341	0.066986	0.032043	-0.3717	0.000305	-0.006714	-0.5957	0.57037	0.029297	-0.028839	-0.076752	-0.011444	-0.084076	-0.075989	-0.004578	-0.09552	-0.009308	0.60257	-0.041962	-0.000458	-0.005493
23.469	-0.006256	0.38101	-0.000763	-0.001831	0.001068	0.018768	0.19562	0.012512	-0.177	-0.028381	-0.16708	0.002594	0.017853	-0.013123	-0.42877	0.00824	-0.008698	-0.59753	0.7576	0.001526	0.016785	-0.035858	-0.063629	-0.02121	0.003204	-0.001678	0.015411	-0.005951	0.77682	-0.02182	0.001984	-0.007935
23.47	0.003815	0.35248	-0.01358	-0.001373	-0.00473	0.010529	0.19333	0.024261	-0.17471	-0.005493	-0.028992	-0.006256	-0.032349	-0.10193	-0.40466	-0.011902	-0.018311	-0.50995	0.91354	-0.050354	0.019531	0.03952	-0.12238	0.081482	0.045929	0.005798	-0.12253	-0.01297	0.99258	-0.039825	-0.001221	-0.015869
23.471	0.011444	0.33676	0.011597	-0.016022	0.002441	-0.003662	0.18417	0.011139	-0.16922	-0.016632	0.054016	-0.00351	-0.040131	-0.081329	-0.19409	-0.002747	0.003967	-0.44235	0.91019	-0.055389	0.011749	0.050812	-0.18036	0.059357	0.11093	0.013275	-0.0383	-0.00824	0.24384	-0.14526	-0.003052	-0.001831
23.472	0.018005	0.31021	0.011902	-0.023499	0.001221	0.004578	0.18738	0.018158	-0.1712	-0.004272	0.12421	-0.002899	-0.027008	-0.059814	0.034485	0.002136	0.026855	-0.51865	0.44693	-0.032959	-0.018005	0.089417	-0.079498	-0.022278	0.13016	0.006409	-0.09491	-0.009918	-0.53238	-0.14374	-0.00061	0.002899
23.473	0.009766	0.26428	-0.020447	0.001221	-0.000763	0.015106	0.15961	0.008087	-0.16388	-0.007019	0.033569	-0.000153	0.026855	-0.10483	0.07431	-0.000458	0.015564	-0.4866	0.73334	0.010071	-0.029449	0.049591	0.086975	0.11917	0.1326	-0.010986	-0.042877	-0.007172	-0.3891	-0.074463	0.000305	0.006866
23.474	0.002747	0.21027	-0.037384	0.00824	-0.007782	0.028229	0.14679	0.008392	-0.16693	0	-0.15625	0.002899	0.009003	-0.17883	0.098267	0.00061	0.015259	-0.53741	0.47119	0.00946	-0.04364	-0.052643	0.1474	0.11124	0.084839	-0.018463	0.061035	-0.007629	-1.6983	0.1503	-0.001831	-0.014648
23.475	-0.001373	0.21484	-0.013733	0.000153	-0.002136	0.028229	0.16876	0.010681	-0.16708	-0.003357	-0.25574	-0.004425	-0.023193	-0.091248	0.55298	0.002441	0.00885	-0.48874	0.6311	-0.056152	-0.036621	-0.096893	0.13977	-0.020447	0.014343	-0.010223	0.040436	-0.003815	-1.6528	0.13138	-0.005646	-0.002899
23.476	0.001221	0.2005	-0.020905	0.00351	0.003662	0.019226	0.14786	0.002441	-0.18036	-0.047607	-0.1889	-0.000153	-0.00351	0.022278	0.18692	0.019836	0.013428	-0.42618	0.7402	-0.0383	-0.032349	-0.11612	0.1088	-0.16525	0.00412	0.00473	-0.054626	-0.003204	1.2186	0.041809	-0.002136	0.000305
23.477	-0.005035	0.17487	-0.03952	-0.001526	0.010223	0.035706	0.11185	0.005798	-0.18539	-0.03479	-0.09903	-0.004883	-0.00824	-0.024719	0.37933	0	0.008392	-0.39414	0.45136	-0.046234	-0.026398	-0.099487	0.054321	-0.18723	-0.010223	0.016632	-0.058441	-0.007477	1.3161	-0.067596	0.000153	0.000153
23.478	0.002136	0.17136	-0.018005	-0.001526	0.010681	-0.007782	0.10803	0.009613	-0.16754	-0.038147	-0.012512	-0.003357	-0.009003	0.005798	-0.11292	-0.001831	0.001221	-0.35797	0.1738	-0.031433	-0.055389	-0.083923	0.028839	-0.088959	-0.062256	0.012665	0.046844	-0.010986	0.73608	-0.15396	-0.000153	-0.001221
23.479	0.001831	0.1297	-0.032196	0.006256	0.003967	-0.002747	0.080261	0.009308	-0.16815	-0.050201	0.098419	-0.004578	-0.008087	0.023499	-0.2153	-0.008545	0.000153	-0.29327	0.11902	0.003967	-0.025635	-0.096741	-0.12955	-0.08194	-0.10193	-0.009613	-0.039673	-0.010986	0.19241	-0.097046	-0.001068	0.007935
23.48	-0.005341	0.13001	-0.049591	-0.003815	-0.021667	-0.020599	0.063324	0.001984	-0.14771	-0.07843	0.1236	-0.003357	0.006256	-0.033875	0.21439	-0.003967	-0.008698	-0.33264	0.1535	-0.008698	0.03418	-0.058289	-0.49377	-0.05661	0.063477	-0.024109	-0.10635	-0.018768	-0.39673	-0.11368	0.001373	-0.003357
23.481	0.003967	0.10361	-0.020447	-0.011292	-0.011902	-0.045624	0.053864	0.004425	-0.14526	-0.052643	0.27191	-0.001678	-0.025635	-0.074158	-0.15411	-0.010223	0.001678	-0.21744	-0.085602	0.001221	0.014038	-0.046539	-0.43808	0.043335	0.20676	-0.025787	-0.15533	-0.040741	-0.33463	-0.094604	0.006104	-0.001678
23.482	0.000763	0.071716	-0.013275	0.016479	-0.001373	-0.033264	0.052185	0.00824	-0.1474	-0.025024	0.2179	-0.012054	-0.039978	-0.078125	-0.068817	-0.010529	0.015564	-0.28336	-0.43228	0.014954	-0.045471	0.072327	-0.063324	0.065002	0.069427	-0.022278	-0.084839	-0.018158	0.57434	0.10757	-0.000305	-0.013733
23.483	0.007629	0.10147	0.004883	0.012207	0.000305	-0.034027	0.072327	0.00824	-0.13534	-0.030975	0.11337	0.001221	-0.018005	-0.070496	0.75195	-0.015411	0.00824	-0.19043	0.2562	-0.01358	-0.089111	0.12222	-0.049591	0.12741	0.029907	-0.016327	-0.025787	0.002899	0.65018	0.1358	0.000763	-0.012207
23.484	0.00824	0.059967	-0.00412	0.006256	0.009308	-0.037689	0.042419	0.005035	-0.16113	-0.040436	-0.003204	-0.000305	0.070801	-0.073242	-0.2005	-0.005341	0.015717	-0.19058	0.24048	0.1387	-0.046234	0.094147	0.007935	0.15167	0.050507	-0.009766	0.018311	0.016937	-0.019836	0.052795	-0.000458	-0.010834
23.485	0.010223	0.024567	-0.019226	-0.001068	0.002747	-0.030975	0.029144	0.005188	-0.15457	-0.03418	-0.071716	-0.000458	0.12436	-0.040894	-0.37766	-0.004425	0.02243	-0.2478	0.38711	0.15274	-0.045776	0.13138	0.030518	-0.013428	0.014954	0.001526	-0.003052	0.022736	0.54474	0.050964	0.000916	-0.010223
23.486	0.011749	-0.029144	-0.014191	0.024261	0.001068	-0.027924	0.025482	0.007935	-0.14587	0.010223	-0.004578	0	0.064392	-0.003052	0.17059	-0.014954	0.033722	-0.22797	0.31723	0.019989	-0.057983	0.14603	0.056763	-0.11185	-0.032654	0.019989	-0.13016	0.014343	0.6723	-0.012054	-0.000458	-0.002289
23.487	0.006714	-0.014954	-0.03479	0.055084	-0.016937	-0.024872	0.016022	0.006409	-0.16388	0.035706	0.046692	0.003815	0.029907	0.03952	0.20676	-0.017548	0.023956	-0.14542	-0.2182	-0.031586	-0.12009	0.14633	0.046692	-0.18387	-0.092468	0.023956	-0.07782	-0.00946	-1.1833	-0.1738	0.000153	-0.004883
23.488	0.006561	-0.013275	-0.037079	0.02655	-0.020752	-0.006256	0.016632	0.006104	-0.14648	0.037842	0.18234	0.009003	-0.025787	0.074615	-0.000763	-0.021973	0.00946	-0.10147	-0.23315	0.002289	-0.04425	0.08194	0.0737	-0.19592	-0.12497	-0.006714	0.10193	0.002441	-0.33432	-0.13168	0.000916	-0.011749
23.489	0.014038	-0.005951	-0.052338	0.022736	-0.005798	-0.027771	0.021057	0.003204	-0.13336	0.020142	0.21683	0.007935	-0.032654	0.032654	-0.19104	-0.012665	0.006714	0.024109	0.31036	-0.03952	-0.055084	0.005341	0.11658	-0.18677	-0.13916	-0.053558	0.16922	-0.002594	-0.63889	0.054474	-0.006409	-0.010529
23.49	0.018616	-0.026093	-0.032043	-0.003052	0.010681	-0.014801	0.012665	0.007324	-0.12787	-0.024567	-0.062408	0.005951	0.023804	-0.037842	-0.26047	-0.010986	0.001678	0.079193	0.31723	-0.059204	-0.065918	0.019989	0.14557	-0.16449	-0.13336	-0.05661	0.091095	-0.00824	-0.19516	0.16571	0.001526	-0.005493
23.491	0.016479	-0.012817	-0.000153	-0.028076	0.021362	0.024719	0.009155	0.003662	-0.12177	-0.023956	-0.17777	-0.001678	0.071106	-0.05188	-0.18677	-0.012817	0.001373	0.07309	0.21606	-0.010986	-0.10254	0.031433	0.081787	0.040283	-0.019531	-0.033417	0.053711	-0.010834	-0.11581	0.050659	-0.000458	-0.009918
23.492	0.029449	-0.022583	-0.021362	-0.019226	-0.011292	0.019684	0.025482	-0.001678	-0.10056	0.001526	-0.092621	0.006866	0.020142	-0.068817	0.001221	-0.010529	-0.028381	0.14267	0.47409	0.062714	0.046997	-0.12207	-0.12253	0.18372	0.12039	-0.01236	0.059357	0.005341	-0.45685	-0.058441	0.000305	-0.013885
23.493	0.02533	-0.018463	-0.030823	-0.010986	0.02121	0.033875	0.014191	0.004272	-0.094757	0.030212	0.001221	0.003967	-0.019379	-0.083466	0.000458	-0.025024	-0.032654	0.14801	0.088196	0.13947	0.17685	-0.094604	-0.20157	0.33005	0.30258	0.070953	0.088654	0.012207	-0.33524	-0.12589	0.00061	-0.010223
23.494	0.016937	-0.043335	0.013733	-0.00351	0.02594	0.056915	-0.008392	0.006409	-0.099335	0.025024	0.04425	0.007019	-0.007172	-0.027466	-0.043182	-0.011292	-0.006714	0.13092	-0.3093	0.13855	0.11185	-0.031738	-0.11978	0.20081	0.21988	0.075073	0.034637	-0.11002	-0.10788	-0.22553	-0.009155	-0.009918
23.495	0.016632	-0.049591	-0.001984	0.003815	0.023193	0.039825	0.010376	0.010834	-0.098419	0.021057	0.087128	0.010986	0.012817	-0.087585	-0.065155	-0.01358	0.001678	0.093689	-0.18326	0.17883	0.033569	0.010681	-0.1741	0.056915	0.11063	0.025482	0.006256	-0.17731	0.23132	-0.53909	-0.004425	-0.007324
23.496	0.009613	-0.033569	0.003662	-0.00061	0.021667	0.038147	0.006561	0.006561	-0.10239	-0.016327	0.041504	0.011749	0.070801	-0.094299	-0.002747	-0.011749	0.003815	0.14008	0.23544	0.14389	0.086823	0.009308	-0.2179	0.003204	0.079193	-0.045471	0.02655	0.11597	0.43045	-0.32684	-0.001831	0.000153
23.497	0.006104	-0.016022	-0.022736	-0.006256	0.009308	0.045166	0.005951	0.004272	-0.1062	-0.025635	-0.078125	0.009308	0.094147	-0.068054	-0.027161	-0.006409	0.007629	0.15274	0.1416	0.11368	0.093384	-0.010681	-0.13107	0.007477	0.045929	-0.062408	0.041199	0.083618	-0.34958	0.33127	-0.004578	0.000458
23.498	0.009155	-0.031891	-0.022583	-0.012512	0.013428	0.019073	0.013123	0.00351	-0.089569	-0.013733	-0.2861	0.01236	0.007782	-0.10513	0.007172	-0.002899	0.013733	0.17532	-0.31967	0.027161	0.040131	-0.020142	-0.12619	0.14679	0.081482	-0.021973	-0.008545	0.048676	-0.55222	0.19089	-0.002441	0.000305
23.499	0.00946	-0.031891	0.001068	0.001373	0.002441	0.026703	0.01297	0.007172	-0.060577	-0.033112	-0.05722	0.009766	0.006104	-0.10361	0.062561	-0.013275	0.013275	0.22598	-0.23392	0.009308	0.019684	-0.032196	-0.013123	0.11108	0.064697	-0.019379	0.005798	0.010986	-0.21835	-0.5043	0.000153	-0.004883
